<?xml version="1.0" encoding="UTF-8" standalone="no"?>
<svg
   width="13.4167in"
   height="9.42708in"
   viewBox="0 450 644 450"
   version="1.1"
   id="svg161"
   sodipodi:docname="StadionMap.svg"
   inkscape:version="1.1.1 (3bf5ae0d25, 2021-09-20)"
   xmlns:inkscape="http://www.inkscape.org/namespaces/inkscape"
   xmlns:sodipodi="http://sodipodi.sourceforge.net/DTD/sodipodi-0.dtd"
   xmlns="http://www.w3.org/2000/svg"
   xmlns:svg="http://www.w3.org/2000/svg">
  <defs
     id="defs165" />
  <sodipodi:namedview
     id="namedview163"
     pagecolor="#ffffff"
     bordercolor="#666666"
     borderopacity="1.0"
     inkscape:pageshadow="2"
     inkscape:pageopacity="0.0"
     inkscape:pagecheckerboard="0"
     inkscape:document-units="in"
     showgrid="false"
     inkscape:zoom="0.709722"
     inkscape:cx="565.00996"
     inkscape:cy="502.30935"
     inkscape:window-width="1920"
     inkscape:window-height="1001"
     inkscape:window-x="-9"
     inkscape:window-y="-9"
     inkscape:window-maximized="1"
     inkscape:current-layer="svg161" />
  <path
     id="Auswahl"
     fill="none"
     stroke="black"
     stroke-width="1"
     d="M 348.00,54.00            C 348.00,54.00 355.13,85.00 355.13,85.00              355.13,85.00 368.37,138.00 368.37,138.00              368.37,138.00 373.37,158.00 373.37,158.00              373.37,158.00 376.56,165.98 376.56,165.98              376.56,165.98 384.00,166.91 384.00,166.91              384.00,166.91 403.00,165.00 403.00,165.00              403.00,165.00 403.00,46.00 403.00,46.00              403.00,46.00 348.00,54.00 348.00,54.00 Z            M 647.00,46.00            C 647.00,46.00 647.00,84.00 647.00,84.00              647.00,84.00 675.00,84.00 675.00,84.00              675.00,84.00 675.00,46.00 675.00,46.00              675.00,46.00 647.00,46.00 647.00,46.00 Z            M 770.00,46.00            C 770.00,46.00 770.00,141.00 770.00,141.00              770.00,141.00 794.00,141.00 794.00,141.00              794.00,141.00 794.00,46.00 794.00,46.00              794.00,46.00 770.00,46.00 770.00,46.00 Z            M 796.00,46.00            C 796.00,46.00 796.00,141.00 796.00,141.00              796.00,141.00 799.00,141.00 799.00,141.00              799.00,141.00 799.00,160.00 799.00,160.00              799.00,160.00 883.00,160.00 883.00,160.00              883.00,160.00 883.00,55.00 883.00,55.00              883.00,53.01 883.23,49.19 881.98,47.60              879.96,45.05 865.68,46.00 862.00,46.00              862.00,46.00 796.00,46.00 796.00,46.00 Z            M 886.00,46.00            C 886.00,46.00 886.00,68.00 886.00,68.00              886.00,68.00 887.00,83.00 887.00,83.00              887.00,83.00 887.00,119.00 887.00,119.00              887.00,119.00 888.00,141.00 888.00,141.00              888.00,141.00 912.00,141.00 912.00,141.00              912.00,141.00 912.00,46.96 912.00,46.96              912.00,46.96 896.00,46.96 896.00,46.96              896.00,46.96 886.00,46.00 886.00,46.00 Z            M 412.00,47.00            C 412.00,47.00 412.00,140.00 412.00,140.00              412.00,140.00 436.00,140.00 436.00,140.00              436.00,140.00 436.00,47.00 436.00,47.00              436.00,47.00 412.00,47.00 412.00,47.00 Z            M 439.00,47.00            C 439.00,47.00 439.00,157.00 439.00,157.00              439.00,157.00 526.00,157.00 526.00,157.00              526.00,157.00 526.00,47.00 526.00,47.00              526.00,47.00 439.00,47.00 439.00,47.00 Z            M 529.00,47.00            C 529.00,47.00 529.00,140.00 529.00,140.00              529.00,140.00 553.00,140.00 553.00,140.00              553.00,140.00 553.00,47.00 553.00,47.00              553.00,47.00 529.00,47.00 529.00,47.00 Z            M 554.00,47.00            C 554.00,47.00 554.00,160.00 554.00,160.00              554.00,160.00 642.00,160.00 642.00,160.00              642.00,160.00 642.00,47.00 642.00,47.00              642.00,47.00 554.00,47.00 554.00,47.00 Z            M 680.00,47.00            C 680.00,47.00 680.00,80.00 680.00,80.00              680.00,80.00 681.00,97.00 681.00,97.00              681.00,97.00 681.00,121.00 681.00,121.00              681.00,121.00 682.00,138.00 682.00,138.00              682.00,138.00 682.00,160.00 682.00,160.00              682.00,160.00 768.00,160.00 768.00,160.00              768.00,160.00 768.00,111.00 768.00,111.00              768.00,111.00 767.00,94.00 767.00,94.00              767.00,94.00 767.00,47.00 767.00,47.00              767.00,47.00 680.00,47.00 680.00,47.00 Z            M 915.00,47.00            C 915.00,47.00 915.00,138.00 915.00,138.00              915.00,138.00 914.00,153.00 914.00,153.00              914.00,153.00 914.00,167.00 914.00,167.00              914.00,167.00 933.00,171.00 933.00,171.00              931.83,174.83 928.38,189.63 930.06,192.79              931.74,195.94 942.47,201.43 946.00,203.00              946.00,203.00 957.67,186.00 957.67,186.00              958.93,184.10 961.79,180.31 961.70,178.04              961.46,171.47 948.27,169.97 950.85,161.91              950.85,161.91 959.60,140.00 959.60,140.00              959.60,140.00 979.80,90.00 979.80,90.00              982.67,82.82 989.80,66.63 991.00,60.00              977.19,55.40 963.52,50.89 949.00,49.17              949.00,49.17 915.00,47.00 915.00,47.00 Z            M 238.00,133.00            C 238.00,133.00 261.00,148.66 261.00,148.66              261.00,148.66 331.00,196.67 331.00,196.67              331.00,196.67 355.00,212.67 355.00,212.67              355.00,212.67 366.00,218.31 366.00,218.31              366.00,218.31 382.00,209.00 382.00,209.00              382.00,209.00 372.15,173.00 372.15,173.00              372.15,173.00 351.58,99.00 351.58,99.00              351.58,99.00 340.00,56.00 340.00,56.00              333.81,57.12 325.10,61.16 319.00,63.60              319.00,63.60 300.00,71.40 300.00,71.40              296.01,73.51 286.11,81.57 282.00,84.79              267.03,96.53 265.73,95.42 253.58,111.00              248.80,117.12 240.34,125.94 238.00,133.00 Z            M 994.00,61.00            C 994.00,61.00 982.31,93.00 982.31,93.00              982.31,93.00 970.69,125.00 970.69,125.00              970.69,125.00 961.00,151.00 961.00,151.00              961.00,151.00 970.00,151.72 970.00,151.72              970.00,151.72 984.00,160.00 984.00,160.00              978.30,173.37 968.66,172.37 976.00,184.00              982.76,180.80 996.91,165.09 1003.00,159.00              1003.00,159.00 1058.00,104.00 1058.00,104.00              1053.46,98.51 1045.72,93.29 1040.00,88.79              1024.40,76.51 1025.02,75.76 1007.00,66.75              1002.65,64.58 998.71,62.34 994.00,61.00 Z            M 647.00,86.00            C 647.00,86.00 647.00,142.00 647.00,142.00              647.00,142.00 675.00,142.00 675.00,142.00              675.00,142.00 675.00,86.00 675.00,86.00              675.00,86.00 647.00,86.00 647.00,86.00 Z            M 1107.00,181.00            C 1104.95,173.80 1098.68,162.07 1095.26,155.00              1092.67,149.66 1090.74,143.95 1087.40,139.00              1087.40,139.00 1075.39,124.00 1075.39,124.00              1072.94,120.99 1064.52,109.20 1060.99,109.20              1058.52,109.20 1055.66,112.38 1054.00,114.00              1054.00,114.00 1039.58,129.00 1039.58,129.00              1039.58,129.00 998.00,171.00 998.00,171.00              995.08,173.92 981.98,186.60 980.65,189.00              978.68,192.58 980.99,195.09 983.00,198.00              986.86,203.56 989.33,209.50 997.00,208.82              997.00,208.82 1027.00,201.37 1027.00,201.37              1027.00,201.37 1085.00,186.63 1085.00,186.63              1085.00,186.63 1107.00,181.00 1107.00,181.00 Z            M 230.00,141.00            C 230.00,141.00 217.75,166.00 217.75,166.00              217.75,166.00 208.00,187.00 208.00,187.00              208.00,187.00 237.00,194.58 237.00,194.58              237.00,194.58 272.00,203.85 272.00,203.85              272.00,203.85 325.00,218.00 325.00,218.00              325.00,218.00 332.00,198.00 332.00,198.00              332.00,198.00 259.00,156.70 259.00,156.70              259.00,156.70 230.00,141.00 230.00,141.00 Z            M 408.00,169.00            C 408.00,169.00 408.00,205.00 408.00,205.00              408.00,205.00 430.00,205.00 430.00,205.00              430.00,205.00 430.00,169.00 430.00,169.00              430.00,169.00 408.00,169.00 408.00,169.00 Z            M 433.00,205.00            C 433.00,205.00 654.00,205.00 654.00,205.00              654.00,205.00 654.00,170.00 654.00,170.00              654.00,170.00 543.00,170.00 543.00,170.00              543.00,170.00 543.00,204.00 543.00,204.00              543.00,204.00 541.00,204.00 541.00,204.00              541.00,204.00 541.00,169.00 541.00,169.00              541.00,169.00 442.00,169.00 442.00,169.00              439.70,169.00 435.58,168.62 433.92,170.60              432.06,173.08 433.61,179.05 433.92,182.00              433.92,182.00 433.00,194.00 433.00,194.00              433.00,194.00 433.00,205.00 433.00,205.00 Z            M 656.00,170.00            C 656.00,170.00 656.00,205.00 656.00,205.00              656.00,205.00 779.00,205.00 779.00,205.00              779.00,205.00 779.00,170.00 779.00,170.00              779.00,170.00 656.00,170.00 656.00,170.00 Z            M 782.00,171.00            C 782.00,171.00 782.00,205.00 782.00,205.00              782.00,205.00 897.00,205.00 897.00,205.00              897.00,205.00 897.00,171.00 897.00,171.00              897.00,171.00 782.00,171.00 782.00,171.00 Z            M 902.00,171.00            C 902.00,171.00 902.00,205.00 902.00,205.00              902.00,205.00 920.00,205.00 920.00,205.00              920.00,205.00 920.00,171.00 920.00,171.00              920.00,171.00 902.00,171.00 902.00,171.00 Z            M 966.00,182.00            C 966.00,182.00 955.00,199.00 955.00,199.00              955.00,199.00 949.62,209.00 949.62,209.00              949.62,209.00 954.00,223.00 954.00,223.00              954.00,223.00 976.00,217.87 976.00,217.87              977.95,217.40 983.04,216.36 984.36,215.07              986.65,212.82 984.20,207.59 983.33,205.00              980.49,196.48 974.16,186.20 966.00,182.00 Z            M 207.00,195.00            C 207.00,195.00 203.00,235.00 203.00,235.00              203.00,235.00 251.00,238.83 251.00,238.83              251.00,238.83 287.00,241.83 287.00,241.83              287.00,241.83 299.00,243.00 299.00,243.00              299.00,243.00 301.00,217.00 301.00,217.00              301.00,217.00 233.00,200.87 233.00,200.87              233.00,200.87 207.00,195.00 207.00,195.00 Z            M 957.00,228.00            C 957.00,228.00 957.00,279.00 957.00,279.00              957.00,279.00 1037.00,279.00 1037.00,279.00              1037.00,279.00 1054.00,278.00 1054.00,278.00              1054.00,278.00 1115.00,278.00 1115.00,278.00              1115.00,278.00 1115.00,262.00 1115.00,262.00              1115.00,262.00 1114.04,252.00 1114.04,252.00              1114.04,252.00 1114.04,240.00 1114.04,240.00              1114.04,240.00 1113.04,228.00 1113.04,228.00              1113.04,228.00 1113.04,216.00 1113.04,216.00              1113.04,216.00 1112.00,196.00 1112.00,196.00              1112.00,196.00 957.00,228.00 957.00,228.00 Z            M 339.00,207.00            C 339.00,207.00 334.00,216.00 334.00,216.00              332.21,220.71 332.79,233.03 334.00,238.00              334.00,238.00 324.00,236.00 324.00,236.00              324.00,236.00 324.00,248.00 324.00,248.00              324.00,248.00 316.00,248.00 316.00,248.00              316.00,248.00 301.00,246.96 301.00,246.96              301.00,246.96 285.00,246.96 285.00,246.96              285.00,246.96 273.00,246.00 273.00,246.00              273.00,246.00 230.00,245.00 230.00,245.00              230.00,245.00 218.00,244.04 218.00,244.04              218.00,244.04 202.96,244.04 202.96,244.04              202.96,244.04 202.96,258.00 202.96,258.00              202.96,258.00 202.00,270.00 202.00,270.00              202.00,270.00 202.00,324.00 202.00,324.00              202.00,324.00 285.00,324.00 285.00,324.00              285.00,324.00 302.00,325.00 302.00,325.00              302.00,325.00 325.00,325.00 325.00,325.00              325.00,325.00 325.00,340.00 325.00,340.00              325.00,340.00 348.00,340.00 348.00,340.00              348.00,340.00 360.00,339.00 360.00,339.00              360.00,339.00 360.00,273.00 360.00,273.00              360.00,273.00 359.00,240.00 359.00,240.00              359.00,240.00 346.00,240.00 346.00,240.00              346.00,240.00 349.00,239.00 349.00,239.00              349.00,239.00 342.00,238.00 342.00,238.00              342.00,238.00 362.00,238.00 362.00,238.00              362.00,238.00 364.36,223.18 364.36,223.18              364.36,223.18 357.00,217.00 357.00,217.00              357.00,217.00 339.00,207.00 339.00,207.00 Z            M 957.00,283.00            C 957.00,283.00 957.00,306.00 957.00,306.00              957.00,306.00 956.00,322.00 956.00,322.00              956.00,322.00 956.00,389.00 956.00,389.00              956.00,389.00 1115.00,389.00 1115.00,389.00              1115.00,389.00 1115.00,282.00 1115.00,282.00              1115.00,282.00 1010.00,282.00 1010.00,282.00              1010.00,282.00 993.00,283.00 993.00,283.00              993.00,283.00 957.00,283.00 957.00,283.00 Z            M 202.00,331.00            C 202.00,331.00 202.00,353.00 202.00,353.00              202.00,353.00 301.00,353.00 301.00,353.00              301.00,353.00 301.00,331.00 301.00,331.00              301.00,331.00 202.00,331.00 202.00,331.00 Z            M 325.00,347.00            C 325.00,347.00 325.00,359.00 325.00,359.00              325.00,359.00 202.00,359.00 202.00,359.00              202.00,359.00 202.00,445.00 202.00,445.00              202.00,445.00 325.00,445.00 325.00,445.00              325.00,445.00 325.00,460.00 325.00,460.00              325.00,460.00 360.00,460.00 360.00,460.00              360.00,460.00 360.00,347.00 360.00,347.00              360.00,347.00 325.00,347.00 325.00,347.00 Z            M 956.00,391.00            C 956.00,391.00 956.00,419.00 956.00,419.00              956.00,419.00 1115.00,419.00 1115.00,419.00              1115.00,419.00 1115.00,391.00 1115.00,391.00              1115.00,391.00 956.00,391.00 956.00,391.00 Z            M 955.00,422.00            C 955.00,422.00 955.00,519.00 955.00,519.00              955.00,519.00 1115.00,519.00 1115.00,519.00              1115.00,519.00 1115.00,422.00 1115.00,422.00              1115.00,422.00 955.00,422.00 955.00,422.00 Z            M 202.00,451.00            C 202.00,451.00 202.00,473.00 202.00,473.00              202.00,473.00 301.00,473.00 301.00,473.00              301.00,473.00 301.00,451.00 301.00,451.00              301.00,451.00 202.00,451.00 202.00,451.00 Z            M 325.00,468.00            C 325.00,468.00 325.00,480.00 325.00,480.00              325.00,480.00 202.00,480.00 202.00,480.00              202.00,480.00 202.00,511.00 202.00,511.00              202.00,511.00 203.00,527.00 203.00,527.00              203.00,527.00 203.00,561.00 203.00,561.00              203.00,561.00 219.00,561.00 219.00,561.00              219.00,561.00 239.00,560.00 239.00,560.00              239.00,560.00 259.00,559.00 259.00,559.00              259.00,559.00 276.00,558.00 276.00,558.00              276.00,558.00 305.00,557.00 305.00,557.00              305.00,557.00 325.00,556.00 325.00,556.00              325.00,556.00 326.00,571.00 326.00,571.00              326.00,571.00 349.00,567.13 349.00,567.13              349.00,567.13 358.98,564.41 358.98,564.41              358.98,564.41 360.00,557.00 360.00,557.00              360.00,557.00 360.00,468.00 360.00,468.00              360.00,468.00 325.00,468.00 325.00,468.00 Z            M 955.00,521.00            C 953.10,531.58 954.02,556.88 954.00,569.00              953.99,574.60 952.71,586.36 948.57,590.37              945.42,593.42 936.04,595.90 934.83,599.39              933.92,601.07 934.82,605.97 934.83,608.00              934.83,608.00 938.00,631.00 938.00,631.00              938.00,631.00 961.00,626.00 961.00,626.00              961.00,626.00 957.00,619.00 957.00,619.00              957.00,619.00 974.72,609.32 974.72,609.32              974.72,609.32 980.00,610.00 980.00,610.00              980.00,610.00 979.43,614.00 979.43,614.00              979.43,614.00 986.00,621.58 986.00,621.58              986.00,621.58 998.00,633.00 998.00,633.00              998.00,633.00 1040.00,674.00 1040.00,674.00              1040.00,674.00 1058.00,692.00 1058.00,692.00              1058.00,692.00 1052.00,693.35 1052.00,693.35              1052.00,693.35 1045.00,688.00 1045.00,688.00              1045.00,688.00 1033.00,676.00 1033.00,676.00              1033.00,676.00 992.00,634.00 992.00,634.00              992.00,634.00 976.00,619.60 976.00,619.60              976.00,619.60 970.00,619.00 970.00,619.00              972.06,624.37 974.67,627.29 977.70,632.00              978.75,633.63 980.35,635.72 979.68,637.79              977.67,643.97 959.33,644.91 960.58,653.04              960.58,653.04 969.19,676.00 969.19,676.00              969.19,676.00 984.81,717.00 984.81,717.00              984.81,717.00 994.00,742.00 994.00,742.00              994.00,742.00 1028.00,730.92 1028.00,730.92              1028.00,730.92 1050.00,711.04 1050.00,711.04              1050.00,711.04 1058.83,702.96 1058.83,702.96              1058.83,702.96 1076.87,679.00 1076.87,679.00              1076.87,679.00 1090.60,660.00 1090.60,660.00              1090.60,660.00 1106.00,622.00 1106.00,622.00              1106.00,622.00 1026.00,601.12 1026.00,601.12              1026.00,601.12 1005.00,595.58 1005.00,595.58              1002.13,594.78 996.85,592.81 994.04,593.69              990.08,594.91 982.98,606.16 981.00,610.00              981.01,604.02 987.52,592.19 990.00,586.00              990.00,586.00 1008.00,590.37 1008.00,590.37              1008.00,590.37 1060.00,602.87 1060.00,602.87              1060.00,602.87 1110.00,614.00 1110.00,614.00              1110.00,614.00 1115.00,571.00 1115.00,571.00              1115.00,571.00 1115.00,521.00 1115.00,521.00              1115.00,521.00 955.00,521.00 955.00,521.00 Z            M 203.00,563.00            C 203.00,563.00 208.00,610.00 208.00,610.00              208.00,610.00 242.00,601.42 242.00,601.42              242.00,601.42 300.00,586.00 300.00,586.00              300.00,586.00 300.00,563.00 300.00,563.00              300.00,563.00 203.00,563.00 203.00,563.00 Z            M 324.00,574.00            C 324.00,574.00 326.64,587.00 326.64,587.00              326.64,587.00 340.63,610.82 340.63,610.82              340.63,610.82 345.00,615.00 345.00,615.00              345.00,615.00 358.67,596.00 358.67,596.00              358.67,596.00 363.69,586.00 363.69,586.00              363.69,586.00 360.00,569.00 360.00,569.00              360.00,569.00 324.00,574.00 324.00,574.00 Z            M 212.00,617.00            C 212.00,617.00 231.00,666.00 231.00,666.00              231.00,666.00 258.00,650.40 258.00,650.40              258.00,650.40 333.00,606.00 333.00,606.00              331.84,602.04 325.54,589.05 321.79,587.64              319.24,586.67 314.58,588.26 312.00,589.00              312.00,589.00 293.00,594.37 293.00,594.37              293.00,594.37 242.00,608.58 242.00,608.58              242.00,608.58 212.00,617.00 212.00,617.00 Z            M 366.00,590.00            C 366.00,590.00 349.00,617.00 349.00,617.00              355.49,626.06 366.28,631.48 377.00,634.00              377.00,634.00 381.25,611.00 381.25,611.00              381.63,608.68 382.84,603.15 382.23,601.09              380.95,596.73 370.27,591.04 366.00,590.00 Z            M 399.00,599.00            C 399.00,599.00 399.00,634.00 399.00,634.00              399.00,634.00 453.00,634.00 453.00,634.00              453.00,634.00 453.00,599.00 453.00,599.00              453.00,599.00 399.00,599.00 399.00,599.00 Z            M 460.00,600.00            C 460.00,600.00 460.00,635.00 460.00,635.00              460.00,635.00 595.00,635.00 595.00,635.00              595.00,635.00 595.00,600.00 595.00,600.00              595.00,600.00 460.00,600.00 460.00,600.00 Z            M 602.00,600.00            C 602.00,600.00 602.00,643.00 602.00,643.00              602.00,643.00 437.00,643.00 437.00,643.00              437.00,643.00 437.00,760.00 437.00,760.00              437.00,760.00 879.00,760.00 879.00,760.00              879.00,760.00 879.00,643.00 879.00,643.00              879.00,643.00 709.00,643.00 709.00,643.00              709.00,643.00 709.00,600.00 709.00,600.00              709.00,600.00 602.00,600.00 602.00,600.00 Z            M 720.00,601.00            C 720.00,601.00 720.00,635.00 720.00,635.00              720.00,635.00 778.00,635.00 778.00,635.00              778.00,635.00 778.00,601.00 778.00,601.00              778.00,601.00 720.00,601.00 720.00,601.00 Z            M 781.00,601.00            C 781.00,601.00 781.00,635.00 781.00,635.00              781.00,635.00 855.00,635.00 855.00,635.00              855.00,635.00 855.00,601.00 855.00,601.00              855.00,601.00 781.00,601.00 781.00,601.00 Z            M 860.00,601.00            C 860.00,601.00 860.00,635.00 860.00,635.00              860.00,635.00 915.00,635.00 915.00,635.00              915.00,635.00 915.00,601.00 915.00,601.00              915.00,601.00 860.00,601.00 860.00,601.00 Z            M 233.00,667.00            C 236.10,673.59 250.00,687.57 255.58,694.00              260.00,699.11 266.06,707.18 272.00,710.00              272.00,710.00 323.42,645.00 323.42,645.00              328.64,638.32 341.62,624.05 344.00,617.00              339.45,613.73 337.66,611.95 335.00,607.00              335.00,607.00 298.00,628.00 298.00,628.00              298.00,628.00 255.00,653.80 255.00,653.80              255.00,653.80 233.00,667.00 233.00,667.00 Z            M 922.00,634.00            C 922.00,634.00 924.00,643.00 924.00,643.00              924.00,643.00 906.00,643.00 906.00,643.00              906.00,643.00 906.00,659.00 906.00,659.00              906.00,659.00 907.00,674.00 907.00,674.00              907.00,674.00 908.00,745.00 908.00,745.00              908.00,745.00 909.00,760.00 909.00,760.00              916.99,761.07 927.81,759.04 936.00,758.16              953.80,756.26 972.07,754.23 989.00,748.00              989.00,748.00 967.40,692.00 967.40,692.00              967.40,692.00 943.00,631.00 943.00,631.00              943.00,631.00 922.00,634.00 922.00,634.00 Z            M 331.00,747.00            C 346.39,749.17 362.85,756.98 378.00,757.00              378.00,757.00 408.00,757.00 408.00,757.00              408.00,757.00 408.00,735.00 408.00,735.00              408.00,735.00 409.00,720.00 409.00,720.00              409.00,720.00 409.00,694.00 409.00,694.00              409.00,694.00 410.00,677.00 410.00,677.00              410.00,677.00 411.00,640.00 411.00,640.00              411.00,640.00 396.00,638.95 396.00,638.95              396.00,638.95 385.00,638.95 385.00,638.95              381.73,638.52 375.33,637.04 372.51,638.95              370.63,640.34 369.27,644.81 368.40,647.00              368.40,647.00 360.81,667.00 360.81,667.00              360.81,667.00 343.80,712.00 343.80,712.00              343.80,712.00 331.00,747.00 331.00,747.00 Z            M 335.00,639.00            C 335.00,639.00 317.15,664.00 317.15,664.00              317.15,664.00 297.63,691.00 297.63,691.00              292.91,697.37 281.12,712.35 279.00,719.00              299.00,732.33 301.48,734.45 324.00,744.00              324.00,744.00 361.00,653.00 361.00,653.00              361.00,653.00 335.00,639.00 335.00,639.00 Z            M 413.00,660.00            C 413.00,660.00 413.00,760.00 413.00,760.00              413.00,760.00 436.00,760.00 436.00,760.00              436.00,760.00 436.00,660.00 436.00,660.00              436.00,660.00 413.00,660.00 413.00,660.00 Z            M 881.00,661.00            C 881.00,661.00 881.00,760.00 881.00,760.00              881.00,760.00 905.00,760.00 905.00,760.00              905.00,760.00 905.00,661.00 905.00,661.00              905.00,661.00 881.00,661.00 881.00,661.00 Z" />
  <path
     style="fill:#E0E0E0;stroke-width:1.11453"
     d="m 326.00051,451.38532 v -7.80173 h -61.29924 -61.29924 v -41.79493 -41.79494 h 61.29924 61.29924 v -6.12992 -6.12993 h 16.71797 16.71798 v 55.72659 55.72658 h -16.71798 -16.71797 z"
     id="path278"
     transform="translate(-0.00180408)" />
  <path
     style="fill:#E0E0E0;stroke-width:1.11453"
     d="m 326.00051,331.74905 v -7.06858 l -20.24024,-0.73314 c -11.13213,-0.40324 -38.77761,-0.73315 -61.4344,-0.73315 h -41.19416 l 0.4537,-38.39838 c 0.24954,-21.11911 0.76081,-38.70548 1.13616,-39.08083 0.61432,-0.61432 45.40936,0.46789 99.8242,2.41168 l 20.3402,0.72658 v -5.73899 c 0,-3.15645 0.37616,-5.72704 0.8359,-5.71241 0.45975,0.0146 2.71551,0.46308 5.01283,0.99658 l 4.17693,0.96999 -0.70724,-9.20086 c -0.64202,-8.35257 -0.44355,-9.77681 2.1528,-15.44798 l 2.86002,-6.24712 8.49852,4.69925 c 4.67418,2.58459 10.04756,5.97873 11.94085,7.54254 3.40128,2.80937 3.43047,2.92238 2.44701,9.47352 l -0.99534,6.63022 -9.75215,0.32203 c -13.46733,0.4447 -12.65631,3.52716 0.93763,3.56362 l 5.67439,0.0152 0.73124,22.56926 c 0.40218,12.4131 0.73256,34.17156 0.73416,48.35214 l 0.003,25.78287 -2.5077,0.67203 c -1.37923,0.36962 -8.90232,0.6789 -16.71797,0.68727 l -14.21069,0.0152 z"
     id="path317"
     transform="translate(-0.00180408)" />
  <path
     style="fill:#E0E0E0;stroke-width:1.11453"
     d="m 227.71884,352.47154 c 13.68075,-0.17742 35.74848,-0.17721 49.0394,4.7e-4 13.29092,0.17768 2.09758,0.32285 -24.87409,0.32259 -26.97166,-2.5e-4 -37.84605,-0.14563 -24.16531,-0.32306 z"
     id="path356"
     transform="translate(-0.00180408)" />
  <path
     style="fill:#E0E0E0;stroke-width:1.11453"
     d="m 203.40203,342.16121 v -10.03078 h 48.48212 48.48213 v 10.03078 10.03079 h -48.48213 -48.48212 z"
     id="path395"
     transform="translate(-0.00180408)" />
  <path
     style="fill:#E0E0E0;stroke-width:1.11453"
     d="m 290.89276,241.15591 c -1.22599,-0.21665 -20.99328,-1.90203 -43.92733,-3.74529 -22.93405,-1.84327 -41.92724,-3.58036 -42.20709,-3.86021 -0.45741,-0.45742 2.88022,-36.43301 3.43035,-36.97495 0.24604,-0.24238 27.65405,6.07847 67.10063,15.47479 22.15255,5.27682 24.49834,6.05588 24.29857,8.06975 -0.12162,1.22598 -0.54279,6.61753 -0.93595,11.98121 -0.77328,10.54962 -0.57946,10.32344 -7.75918,9.0547 z"
     id="path434"
     transform="translate(-0.00180408)" />
  <path
     style="fill:#E0E0E0;stroke-width:1.11453"
     d="m 300.92354,210.52647 c -11.03386,-3.0129 -35.60928,-9.55814 -54.61205,-14.54498 -19.00276,-4.98683 -34.96832,-9.43636 -35.47903,-9.88784 -0.5107,-0.45149 3.70439,-10.4062 9.36687,-22.1216 l 10.29542,-21.30071 11.80923,6.33055 c 15.29741,8.20046 86.22033,48.22102 87.34327,49.28629 1.47719,1.4013 -4.94361,17.94507 -6.91754,17.82363 -0.95952,-0.059 -10.7723,-2.57243 -21.80617,-5.58534 z"
     id="path473"
     transform="translate(-0.00180408)" />
  <path
     style="fill:#E0E0E0;stroke-width:1.11453"
     d="m 357.74687,212.55356 c -4.75673,-2.56457 -113.55651,-76.18679 -117.38843,-79.43396 -1.24561,-1.05553 2.4563,-6.79102 12.24964,-18.97875 9.8189,-12.21955 13.13018,-15.373096 28.91933,-27.541783 17.37856,-13.393639 18.29515,-13.931133 36.14038,-21.192796 10.07027,-4.097844 19.03844,-7.450626 19.92926,-7.450626 1.66816,0 2.38811,2.072344 7.93751,22.847899 2.67692,10.021733 33.2949,121.074656 34.61699,125.557536 0.38995,1.32222 -1.32376,2.97914 -6.05185,5.8513 -3.62771,2.20371 -7.28255,3.99537 -8.12185,3.98145 -0.83929,-0.0139 -4.54324,-1.65205 -8.23098,-3.64027 z"
     id="path512"
     transform="translate(-0.00180408)" />
  <path
     style="fill:#E0E0E0;stroke-width:1.11453"
     d="m 379.87164,165.31263 c -1.55055,-0.31624 -3.04238,-2.06576 -4.17477,-4.89589 -2.77961,-6.94692 -26.87365,-104.494278 -26.01617,-105.32931 0.15523,-0.151167 11.94302,-1.965707 26.1951,-4.03231 l 25.91286,-3.75746 v 58.21874 58.21874 l -3.62223,0.56092 c -6.46185,1.00064 -15.82261,1.52077 -18.29479,1.01657 z"
     id="path551"
     transform="translate(-0.00180408)" />
  <path
     style="fill:#E0E0E0;stroke-width:1.11453"
     d="M 412.93397,93.620658 V 47.924861 h 11.14532 11.14532 v 45.695797 45.695802 h -11.14532 -11.14532 z"
     id="path590"
     transform="translate(-0.00180408)" />
  <path
     style="fill:#E0E0E0;stroke-width:1.11453"
     d="M 439.68273,101.97965 V 47.924861 h 42.90947 42.90947 v 54.054789 54.05478 H 482.5922 439.68273 Z"
     id="path629"
     transform="translate(-0.00180408)" />
  <path
     style="fill:#E0E0E0;stroke-width:1.11453"
     d="m 434.38682,187.51995 0.28052,-16.43934 52.66162,-0.28955 52.66162,-0.28954 v 16.72888 16.72889 h -52.94214 -52.94215 z"
     id="path668"
     transform="translate(-0.00180408)" />
  <path
     style="fill:#E0E0E0;stroke-width:1.11453"
     d="m 409.59038,187.24132 v -16.71798 h 9.47352 9.47352 v 16.71798 16.71797 h -9.47352 -9.47352 z"
     id="path707"
     transform="translate(-0.00180408)" />
  <path
     style="fill:#E0E0E0;stroke-width:1.11453"
     d="m 544.44871,187.24132 v -16.71798 h 54.05478 54.05479 v 16.71798 16.71797 h -54.05479 -54.05478 z"
     id="path746"
     transform="translate(-0.00180408)" />
  <path
     style="fill:#E0E0E0;stroke-width:1.11453"
     d="M 555.59402,103.65144 V 47.924861 h 42.90947 42.90947 v 55.726579 55.72659 h -42.90947 -42.90947 z"
     id="path785"
     transform="translate(-0.00180408)" />
  <path
     style="fill:#E0E0E0;stroke-width:1.11453"
     d="M 529.9598,93.620658 V 47.924861 h 11.14531 11.14532 V 93.620658 139.31646 H 541.10511 529.9598 Z"
     id="path824"
     transform="translate(-0.00180408)" />
  <path
     style="fill:#E0E0E0;stroke-width:1.11453"
     d="M 648.10015,64.642835 V 46.810329 h 12.81711 12.81712 v 17.832506 17.832507 h -12.81712 -12.81711 z"
     id="path863"
     transform="translate(-0.00180408)" />
  <path
     style="fill:#E0E0E0;stroke-width:1.11453"
     d="M 648.10015,113.68223 V 86.933468 h 12.81711 12.81712 v 26.748762 26.74876 h -12.81712 -12.81711 z"
     id="path902"
     transform="translate(-0.00180408)" />
  <path
     style="fill:#E0E0E0;stroke-width:1.11453"
     d="M 682.27206,130.77668 C 681.86728,115.04593 681.5361,89.968971 681.5361,75.050093 V 47.924861 h 42.3522 42.35221 v 17.093133 c 0,9.401223 0.33199,34.478185 0.73775,55.726586 l 0.73776,38.63345 h -42.354 -42.354 z"
     id="path941"
     transform="translate(-0.00180408)" />
  <path
     style="fill:#E0E0E0;stroke-width:1.11453"
     d="m 657.0164,187.24132 v -16.71798 h 60.74198 60.74197 v 16.71798 16.71797 H 717.75838 657.0164 Z"
     id="path980"
     transform="translate(-0.00180408)" />
  <path
     style="fill:#E0E0E0;stroke-width:1.11453"
     d="m 782.95848,187.79858 v -16.16071 h 56.28385 56.28385 v 16.16071 16.16071 h -56.28385 -56.28385 z"
     id="path1019"
     transform="translate(-0.00180408)" />
  <path
     style="fill:#E0E0E0;stroke-width:1.11453"
     d="m 799.67645,149.90451 c 0,-5.57266 -0.45892,-9.47352 -1.11453,-9.47352 -0.72533,0 -1.11453,-16.34647 -1.11453,-46.810332 V 46.810329 h 40.19641 c 25.57703,0 40.98047,0.419615 42.3522,1.153745 2.08677,1.116802 2.1558,2.919005 2.1558,56.283846 v 55.13011 h -41.23767 -41.23768 z"
     id="path1058"
     transform="translate(-0.00180408)" />
  <path
     style="fill:#E0E0E0;stroke-width:1.11453"
     d="M 770.69863,93.620658 V 46.810329 h 11.14532 11.14531 v 46.810329 46.810332 h -11.14531 -11.14532 z"
     id="path1097"
     transform="translate(-0.00180408)" />
  <path
     style="fill:#E0E0E0;stroke-width:1.11453"
     d="m 888.42941,123.43438 c -0.35435,-9.34813 -0.92828,-30.473958 -1.27541,-46.946276 -0.57559,-27.313991 -0.47216,-29.888662 1.17535,-29.256455 0.99356,0.381266 6.53008,0.693212 12.30337,0.693212 h 10.4969 v 46.253063 46.253066 h -11.02797 -11.02798 z"
     id="path1136"
     transform="translate(-0.00180408)" />
  <path
     style="fill:#E0E0E0;stroke-width:1.11453"
     d="m 940.08809,198.7422 c -2.74782,-1.60339 -5.87373,-3.67091 -6.94647,-4.59448 -2.38734,-2.05538 -2.52552,-8.21502 -0.38809,-17.29949 1.11702,-4.74756 1.18722,-6.59619 0.26122,-6.8791 -0.69646,-0.21279 -4.02476,-0.97125 -7.39622,-1.68545 -3.37146,-0.71422 -7.00762,-1.53934 -8.08035,-1.83362 -1.82631,-0.501 -1.95043,-4.29618 -1.95043,-59.63471 V 47.71569 l 5.29402,0.618151 c 2.91171,0.339983 10.81096,0.927071 17.55387,1.30464 14.53192,0.813712 23.83441,2.557698 39.28724,7.365384 7.35462,2.288169 11.42395,4.109887 11.42395,5.114163 0,0.857968 -5.30023,14.691673 -11.77829,30.741565 -27.66854,68.550917 -28.4331,70.600177 -27.37375,73.370207 0.55146,1.44196 3.06625,4.27539 5.58844,6.29649 2.52218,2.02111 4.58578,4.56017 4.58578,5.64234 0,1.59092 -11.39223,19.6455 -14.31671,22.68932 -0.42249,0.43974 -3.01638,-0.51235 -5.76421,-2.11575 z"
     id="path1175"
     transform="translate(-0.00180408)" />
  <path
     style="fill:#E0E0E0;stroke-width:1.11453"
     d="m 903.3279,187.79858 v -16.16071 h 7.80172 7.80172 v 16.16071 16.16071 h -7.80172 -7.80172 z"
     id="path1251"
     transform="translate(-0.00180408)" />
  <path
     style="fill:#E0E0E0;stroke-width:1.11453"
     d="m 952.87665,215.66205 c -0.99917,-3.43705 -1.49021,-7.10008 -1.09118,-8.14007 1.34003,-3.4926 14.1474,-23.62426 15.02928,-23.62426 1.72194,0 9.98725,9.93731 12.6627,15.22427 3.36765,6.65478 5.20338,13.07748 4.20126,14.69895 -0.41489,0.67131 -6.25046,2.50716 -12.96792,4.07968 -6.71747,1.57251 -13.06945,3.1182 -14.11551,3.43486 -1.50954,0.45696 -2.27675,-0.71357 -3.71863,-5.67343 z"
     id="path1290"
     transform="translate(-0.00180408)" />
  <path
     style="fill:#E0E0E0;stroke-width:1.11453"
     d="m 975.40094,180.92563 c -1.84892,-1.84892 -0.35198,-6.05812 4.27237,-12.01338 2.75847,-3.55236 5.00996,-7.27618 5.00332,-8.27516 -0.016,-2.40677 -12.31348,-9.46188 -17.7362,-10.17532 l -4.23566,-0.55726 15.91359,-43.46674 c 13.4438,-36.720703 16.22322,-43.407727 17.90865,-43.086542 2.78255,0.530261 16.55289,7.547042 23.42419,11.935999 6.7608,4.318399 36.0675,27.301723 36.0675,28.285403 0,1.20311 -77.49176,78.09603 -78.70424,78.09603 -0.64377,0 -1.50486,-0.33436 -1.91352,-0.74303 z"
     id="path1329"
     transform="translate(-0.00180408)" />
  <path
     style="fill:#E0E0E0;stroke-width:1.11453"
     d="m 989.49981,204.79519 c -4.00978,-4.44011 -8.1547,-11.32324 -8.1547,-13.54183 0,-1.34775 14.80851,-17.01589 39.45019,-41.74021 38.9897,-39.12052 39.4808,-39.56231 42.0735,-37.85148 1.4429,0.95207 7.6129,8.02512 13.7112,15.71787 9.474,11.95109 12.3491,16.6359 19.754,32.18755 4.7665,10.01039 8.6793,18.76591 8.6952,19.45671 0.033,1.41879 2.2702,0.80354 -60.2978,16.58035 -25.5172,6.4343 -47.87369,11.69874 -49.68097,11.69874 -1.99365,0 -4.17663,-0.98624 -5.55062,-2.5077 z"
     id="path1368"
     transform="translate(-0.00180408)" />
  <path
     style="fill:#E0E0E0;stroke-width:1.11453"
     d="m 957.93995,253.21768 v -24.30071 l 76.06675,-15.70989 c 41.8368,-8.64044 76.3151,-15.47041 76.6187,-15.17772 0.3035,0.2927 0.877,9.64592 1.2744,20.78493 0.3974,11.13901 1.0963,28.9043 1.5531,39.47842 l 0.8304,19.22567 h -78.1717 -78.17165 z"
     id="path1407"
     transform="translate(-0.00180408)" />
  <path
     style="display:inline;fill:#E0E0E0;stroke-width:1.11453"
     d="m 957.16619,336.69762 c 0.38744,-28.28136 0.9236,-51.63983 1.19148,-51.90771 0.26787,-0.26787 35.39071,-0.78021 78.05083,-1.13852 l 77.5637,-0.65148 v 52.55919 52.55918 h -78.7552 -78.75524 z"
     id="path1446" />
  <path
     style="fill:#E0E0E0;stroke-width:1.11453"
     d="m 955.71088,470.88962 v -47.3676 h 79.13172 79.1318 v 47.3676 47.36759 h -79.1318 -79.13172 z"
     id="path1485"
     transform="translate(-0.00180408)" />
  <path
     style="fill:#E0E0E0;stroke-width:1.11453"
     d="m 956.82542,405.13225 v -12.81711 h 78.57448 78.5745 v 12.81711 12.81712 h -78.5745 -78.57448 z"
     id="path1524"
     transform="translate(-0.00180408)"
     inkscape:label="K3"
     onmouseover="this.style.opacity=1"
     onmouseout="this.style.opacity=0" />
  <path
     style="fill:#E0E0E0;stroke-width:1.11453"
     d="m 939.65878,628.56061 c -0.33687,-1.37453 -1.23466,-7.90608 -1.9951,-14.51456 -1.58213,-13.74926 -1.67157,-13.53121 7.6019,-18.53204 9.23298,-4.97899 9.67493,-6.73679 10.53382,-41.8971 0.40431,-16.5508 0.78402,-30.21774 0.84379,-30.37099 0.0598,-0.15325 35.77475,-0.27863 79.36661,-0.27863 h 79.2579 l -0.6521,30.92825 c -0.4189,19.86814 -1.3608,36.14504 -2.6339,45.51636 L 1110,614 l -26.1915,-5.84598 c -14.4053,-3.21529 -40.9169,-9.40379 -58.9147,-13.75221 -17.9977,-4.34842 -33.1643,-7.90622 -33.70347,-7.90622 -1.10985,0 -7.03516,12.60295 -8.9849,19.11061 -1.10275,3.68064 -1.74185,4.29456 -4.47074,4.29456 -2.76481,0 -9.91211,3.30771 -18.48656,8.55542 -2.38868,1.46191 -2.43116,1.71191 -0.82029,4.827 1.66627,3.2222 1.63975,3.29857 -1.38171,3.97943 -1.69432,0.3818 -4.83596,1.09514 -6.98144,1.58519 -10.25684,2.34277 -9.75799,2.35654 -10.40591,-0.28719 z"
     id="path1563" />
  <path
     style="fill:#E0E0E0;stroke-width:1.11453"
     d="m 993.4635,736.98405 c -0.66046,-1.68573 -2.86442,-7.57882 -4.8977,-13.09575 -2.03328,-5.51693 -9.01152,-24.01293 -15.5072,-41.10222 -9.83558,-25.87612 -11.57443,-31.35847 -10.39953,-32.78807 0.77594,-0.94414 4.53363,-3.13628 8.35042,-4.87142 3.81678,-1.73513 7.73936,-4.37536 8.71683,-5.86717 1.99208,-3.04029 1.64073,-4.09547 -4.22624,-12.69233 -1.80735,-2.64829 -2.98621,-5.11495 -2.61971,-5.48146 1.69926,-1.69926 9.02727,4.9369 41.98683,38.02275 l 35.3923,35.52792 4.2728,-0.79821 c 2.35,-0.43901 4.5235,-1.05219 4.83,-1.36261 0.3065,-0.31042 -17.458,-18.21742 -39.4767,-39.79332 l -40.03392,-39.22891 5.77385,-8.55648 c 3.17562,-4.70607 6.6678,-9.03491 7.76039,-9.61964 1.45596,-0.77921 16.26188,2.66734 55.43618,12.90455 29.3973,7.68224 53.8567,14.34566 54.3542,14.80761 1.5205,1.41181 -12.5736,34.53622 -18.0348,42.3861 -17.4037,25.01587 -27.9898,37.6385 -42.6934,50.90686 l -15.038,13.57006 -15.5997,5.09834 c -8.5799,2.8041 -15.94767,5.09836 -16.37291,5.09836 -0.42524,0 -1.31354,-1.37923 -1.97399,-3.06496 z"
     id="path1602"
     transform="translate(-0.00180408)" />
  <path
     style="fill:#E0E0E0;stroke-width:1.11453"
     d="m 909.59398,750.9157 c -0.33622,-4.4442 -0.88306,-24.58849 -1.21521,-44.76509 -0.33216,-20.1766 -0.92861,-42.36971 -1.32546,-49.31802 l -0.72154,-12.6333 h 9.52601 9.52601 l -0.92876,-4.11797 c -0.51081,-2.26489 -0.71574,-4.46264 -0.45539,-4.8839 0.26036,-0.42125 3.82775,-1.12514 7.92754,-1.56419 4.0998,-0.43905 8.06811,-1.03387 8.81848,-1.32181 1.83838,-0.70545 47.36907,113.59934 45.85342,115.11499 -2.96166,2.96165 -55.76208,11.56964 -70.96692,11.56964 h -5.42689 z"
     id="path1641"
     transform="translate(-0.00180408)" />
  <path
     style="fill:#E0E0E0;stroke-width:1.11453"
     d="M 882.1518,710.51392 V 662.0318 h 11.14531 11.14532 v 48.48212 48.48213 H 893.29711 882.1518 Z"
     id="path1680"
     transform="translate(-0.00180408)" />
  <path
     style="fill:#E0E0E0;stroke-width:1.11453"
     d="m 438.5682,701.59767 v -57.39838 h 82.47534 82.47535 v -21.73337 -21.73336 h 52.38298 52.38299 v 21.73336 21.73337 h 84.7044 84.70441 v 57.39838 57.39838 H 658.13094 438.5682 Z"
     id="path1719"
     transform="translate(-0.00180408)" />
  <path
     style="fill:#E0E0E0;stroke-width:1.11453"
     d="m 860.97569,618.0078 v -16.16071 h 26.74876 26.74876 v 16.16071 16.16071 h -26.74876 -26.74876 z"
     id="path1758"
     transform="translate(-0.00180408)" />
  <path
     style="fill:#E0E0E0;stroke-width:1.11453"
     d="m 781.84395,618.0078 v -16.16071 h 36.22228 36.22228 v 16.16071 16.16071 h -36.22228 -36.22228 z"
     id="path1797"
     transform="translate(-0.00180408)" />
  <path
     style="fill:#E0E0E0;stroke-width:1.11453"
     d="m 720.54471,618.0078 v -16.16071 h 28.42055 28.42056 v 16.16071 16.16071 h -28.42056 -28.42055 z"
     id="path1836"
     transform="translate(-0.00180408)" />
  <path
     style="fill:#E0E0E0;stroke-width:1.11453"
     d="m 460.85883,617.45053 v -16.71797 h 66.31464 66.31463 v 16.71797 16.71798 h -66.31463 -66.31464 z"
     id="path1875"
     transform="translate(-0.00180408)" />
  <path
     style="fill:#E0E0E0;stroke-width:1.11453"
     d="m 399.55959,616.336 v -16.71798 h 26.1915 26.19149 v 16.71798 16.71797 h -26.19149 -26.1915 z"
     id="path1914"
     transform="translate(-0.00180408)" />
  <path
     style="fill:#E0E0E0;stroke-width:1.11453"
     d="m 414.04851,709.95666 v -49.0394 h 10.58805 10.58805 v 49.0394 49.03939 h -10.58805 -10.58805 z"
     id="path1953"
     transform="translate(-0.00180408)" />
  <path
     style="fill:#E0E0E0;stroke-width:1.11453"
     d="m 351.63473,750.91153 c -10.11437,-2.55545 -18.52963,-4.72197 -18.70056,-4.81448 -0.17094,-0.0925 3.9178,-11.64733 9.08609,-25.67738 18.96515,-51.48356 29.73413,-79.03672 31.36538,-80.25044 1.63593,-1.21721 6.03269,-1.17291 27.17695,0.27383 l 9.36199,0.64058 -0.71819,27.47068 c -0.395,15.10888 -1.04896,40.88687 -1.45323,57.28441 l -0.73505,29.81372 -18.4968,-0.0473 c -17.94499,-0.0459 -19.04542,-0.18592 -36.88658,-4.6936 z"
     id="path1992"
     transform="translate(-0.00180408)" />
  <path
     style="fill:#E0E0E0;stroke-width:1.11453"
     d="m 312.06886,737.39904 c -5.51693,-2.62374 -14.91145,-7.90845 -20.8767,-11.74379 l -10.84592,-6.97335 1.53662,-2.9715 c 0.84514,-1.63432 4.25086,-6.73212 7.56827,-11.32844 3.31741,-4.59632 14.69166,-20.39389 25.27611,-35.10571 10.58444,-14.71182 19.64433,-27.16169 20.13308,-27.66639 1.17529,-1.21366 24.78803,11.57786 24.19612,13.10754 -7.01694,18.13403 -35.79346,87.5452 -36.27844,87.50638 -0.37309,-0.0299 -5.19221,-2.201 -10.70914,-4.82474 z"
     id="path2031"
     transform="translate(-0.00180408)" />
  <path
     style="fill:#E0E0E0;stroke-width:1.11453"
     d=""
     id="path2070"
     transform="translate(-0.00180408)" />
  <path
     style="fill:#E0E0E0;stroke-width:1.11453"
     d="m 222.6041,641.1331 c -4.92329,-12.71892 -8.86319,-23.22121 -8.75535,-23.33844 0.46476,-0.50517 104.44401,-29.32195 105.80206,-29.32195 0.82666,0 2.53819,1.12846 3.80341,2.50769 2.28956,2.49589 8.58911,14.19236 7.91524,14.69637 -0.78513,0.58724 -87.73439,51.7361 -93.55048,55.03211 l -6.26345,3.54953 z"
     id="path2109"
     transform="translate(-0.00180408)" />
  <path
     style="fill:#E0E0E0;stroke-width:1.11453"
     d="m 256.13207,693.01278 c -20.14232,-22.51495 -21.7353,-24.5781 -20.12123,-26.06011 1.90608,-1.75012 56.26552,-34.23294 79.34608,-47.41375 l 18.8915,-10.78852 4.1178,4.6287 c 3.19493,3.59133 3.88455,5.06759 3.07706,6.58702 -0.57241,1.07707 -8.93476,11.86017 -18.583,23.96243 -9.64825,12.10226 -24.97622,31.40797 -34.06216,42.90158 -9.08594,11.4936 -17.19084,20.89746 -18.01088,20.89746 -0.82005,0 -7.41487,-6.62166 -14.65517,-14.71481 z"
     id="path2148"
     transform="translate(-0.00180408)" />
  <path
     style="fill:#E0E0E0;stroke-width:1.11453"
     d="m 365.56638,628.63159 c -3.67796,-1.78799 -8.56954,-5.18333 -10.87019,-7.54519 l -4.183,-4.2943 7.91029,-12.4879 c 4.35067,-6.86834 8.51714,-12.4879 9.25883,-12.4879 2.137,0 11.5454,6.32864 12.74744,8.57468 1.13642,2.12342 1.05524,3.00995 -1.61314,17.61682 -2.52069,13.79842 -2.56578,13.93369 -4.63384,13.90316 -1.06106,-0.0157 -4.93844,-1.49138 -8.61639,-3.27937 z"
     id="path2187"
     transform="translate(-0.00180408)" />
  <path
     style="fill:#E0E0E0;stroke-width:1.11453"
     d="m 342.50724,611.01569 c -4.75508,-5.63501 -15.29455,-25.79092 -15.98614,-30.57226 -0.88333,-6.10688 -2.24782,-5.43754 16.50975,-8.09867 17.25004,-2.44726 15.90696,-2.88311 17.85341,5.79376 1.60266,7.1443 1.57507,7.70996 -0.58427,11.98121 -2.43599,4.81849 -13.75271,21.32672 -15.25737,22.25665 -0.50144,0.3099 -1.64236,-0.30241 -2.53538,-1.36069 z"
     id="path2226"
     transform="translate(-0.00180408)" />
  <path
     style="fill:#E0E0E0;stroke-width:1.11453"
     d="m 326.509,562.20984 -0.78346,-7.31583 -15.74459,0.69923 c -8.65953,0.38457 -30.27208,1.41977 -48.02789,2.30044 -17.75581,0.88066 -37.86267,1.60121 -44.68189,1.60121 h -12.3986 l -0.73271,-25.91287 c -0.40299,-14.25207 -0.73386,-31.80594 -0.73527,-39.0086 l -0.003,-13.09575 h 61.29924 61.29924 v -6.12992 -6.12993 h 16.71797 16.71798 v 42.19665 c 0,23.20815 -0.30796,44.44341 -0.68435,47.18946 -0.66427,4.84642 -0.83584,5.03122 -5.85129,6.30258 -4.73873,1.20122 -23.11339,4.61407 -24.86118,4.61764 -0.41095,8.3e-4 -1.09974,-3.2906 -1.53064,-7.31431 z"
     id="path2265"
     transform="translate(-0.00180408)" />
  <path
     style="fill:#E0E0E0;stroke-width:1.11453"
     d="m 208.50071,603.84852 c -1.24488,-9.52337 -3.98415,-35.38401 -3.98415,-37.61315 0,-2.26432 0.37433,-2.28236 47.36759,-2.28236 h 47.3676 v 10.51295 c 0,9.04865 -0.27167,10.59362 -1.95043,11.09217 -4.76619,1.41544 -57.90854,15.35531 -70.49413,18.49145 -7.66241,1.90935 -14.77517,3.72246 -15.80614,4.02913 -1.49389,0.44436 -2.00156,-0.41454 -2.50034,-4.23019 z"
     id="path2304"
     transform="translate(-0.00180408)" />
  <path
     style="fill:#E0E0E0;stroke-width:1.11453"
     d="m 203.40203,461.97337 v -9.47352 h 48.48212 48.48213 v 9.47352 9.47352 h -48.48213 -48.48212 z"
     id="path2343"
     transform="translate(-0.00180408)" />
  <rect
     style="display:inline;fill:#53df38;fill-opacity:0.91402715;stroke-width:0.96;stroke-miterlimit:4;stroke-dasharray:none;opacity:0"
     id="rect81"
     width="156.97255"
     height="104.85697"
     x="956.99963"
     y="282.99991"
     inkscape:label="K4"
     onclick="myJSFunction()"
     onmouseover="this.style.opacity=1"
     onmouseout="this.style.opacity=0" />
  <rect
     style="opacity:0;fill:#53df38;fill-opacity:0.914027;stroke-width:0.96;stroke-miterlimit:4;stroke-dasharray:none"
     id="rect2057"
     width="158.99994"
     height="30.99999"
     x="955.99963"
     y="390.99988" />
  <ellipse
     style="opacity:0;fill:#53df38;fill-opacity:0.914027;stroke-width:0.96;stroke-miterlimit:4;stroke-dasharray:none"
     id="path2140"
     cx="1117.3162"
     cy="75.230888"
     rx="30.64962"
     ry="44.023998" />
  <ellipse
     style="opacity:0;fill:#E0E0E0;fill-opacity:0.914027;stroke-width:0.96;stroke-miterlimit:4;stroke-dasharray:none"
     id="path2142"
     cx="1074.4066"
     cy="67.986427"
     rx="30.092354"
     ry="26.74876" />
  <ellipse
     style="opacity:0;fill:#E0E0E0;fill-opacity:0.914027;stroke-width:0.96;stroke-miterlimit:4;stroke-dasharray:none"
     id="path2188"
     cx="1121.7743"
     cy="83.032608"
     rx="51.825722"
     ry="64.085571" />
  <ellipse
     style="opacity:0;fill:#E0E0E0;fill-opacity:0.914027;stroke-width:0.96;stroke-miterlimit:4;stroke-dasharray:none"
     id="path2190"
     cx="1100.0409"
     cy="35.107746"
     rx="18.947039"
     ry="1.6717975" />
  <rect
     style="opacity:0;fill:#E0E0E0;fill-opacity:0.914027;stroke-width:0.96;stroke-miterlimit:4;stroke-dasharray:none"
     id="rect2214"
     width="224.02086"
     height="144.88911"
     x="522.7135"
     y="283.09103" />
  <rect
     style="opacity:0;fill:#E0E0E0;fill-opacity:0.914027;stroke-width:0.96;stroke-miterlimit:4;stroke-dasharray:none"
     id="rect2216"
     width="135.97285"
     height="75.788155"
     x="492.62119"
     y="318.75604" />
  <ellipse
     style="opacity:0;fill:#ff5555;fill-opacity:0.914027;stroke-width:0.96;stroke-miterlimit:4;stroke-dasharray:none"
     id="path2425"
     cx="1112.858"
     cy="86.376205"
     rx="60.741974"
     ry="52.940254"
     inkscape:label="path2425" />
  <ellipse
     style="opacity:0;fill:#ff5555;fill-opacity:0.914027;stroke-width:0.96;stroke-miterlimit:4;stroke-dasharray:none"
     id="path2635"
     cx="1135.1487"
     cy="72.444557"
     rx="18.389772"
     ry="57.955669" />
  <ellipse
     style="opacity:0;fill:#ff5555;fill-opacity:0.914027;stroke-width:0.96;stroke-miterlimit:4;stroke-dasharray:none"
     id="path2924"
     cx="1150.7349"
     cy="37.755985"
     rx="11.490952"
     ry="32.284103" />
  <ellipse
     style="opacity:0;fill:#ff5555;fill-opacity:0.914027;stroke-width:0.96;stroke-miterlimit:4;stroke-dasharray:none"
     id="path2926"
     cx="1114.6205"
     cy="74.691185"
     rx="35.020042"
     ry="23.255497" />
  <rect
     style="opacity:0;fill:#ff5555;fill-opacity:0.914027;stroke-width:0.96;stroke-miterlimit:4;stroke-dasharray:none"
     id="rect3053"
     width="101.777"
     height="44.322243"
     x="1084.5251"
     y="49.246937" />
  <rect
     style="opacity:0;fill:#ff5555;fill-opacity:0.914027;stroke-width:0.96;stroke-miterlimit:4;stroke-dasharray:none;stroke:#df070b;stroke-opacity:1"
     id="rect3055"
     width="93.021988"
     height="24.623468"
     x="1099.8464"
     y="33.378479" />
  <path
     style="opacity:1;fill:#ffb955;fill-opacity:1;stroke:#ffb955;stroke-width:0.96;stroke-miterlimit:4;stroke-dasharray:none;stroke-opacity:1"
     id="dot_obenrechts"
     sodipodi:type="arc"
     sodipodi:cx="1114.6921"
     sodipodi:cy="76.909645"
     sodipodi:rx="24.065283"
     sodipodi:ry="23.817188"
     sodipodi:start="0"
     sodipodi:end="6.2781937"
     sodipodi:arc-type="slice"
     onclick=""
	 d="m 1138.7574,76.909645 a 24.065283,23.817188 0 0 1 -24.0352,23.817165 24.065283,23.817188 0 0 1 -24.0953,-23.757722 24.065283,23.817188 0 0 1 23.9751,-23.876464 24.065283,23.817188 0 0 1 24.1551,23.698135 l -24.065,0.118886 z" />
  <path
     style="opacity:1;fill:#ffb955;fill-opacity:1;stroke:#ffb955;stroke-width:0.96;stroke-miterlimit:4;stroke-dasharray:none;stroke-opacity:1"
     id="dot_untenrechts"
     sodipodi:type="arc"
     sodipodi:cx="1116.2086"
     sodipodi:cy="743.54663"
     sodipodi:rx="24.065283"
     sodipodi:ry="23.817188"
     sodipodi:start="0"
     sodipodi:end="6.2781937"
     sodipodi:arc-type="slice"
     onclick=""
	 d="m 1140.2739,743.54663 a 24.065283,23.817188 0 0 1 -24.0353,23.81717 24.065283,23.817188 0 0 1 -24.0952,-23.75773 24.065283,23.817188 0 0 1 23.9751,-23.87646 24.065283,23.817188 0 0 1 24.1551,23.69814 l -24.065,0.11888 z"
     onmouseup="" />
  <path
     style="opacity:1;fill:#ffb955;fill-opacity:1;stroke:#ffb955;stroke-width:0.96;stroke-miterlimit:4;stroke-dasharray:none;stroke-opacity:1"
     id="dot_obenlinks"
     sodipodi:type="arc"
     sodipodi:cx="180.08871"
     sodipodi:cy="62.40799"
     sodipodi:rx="24.065283"
     sodipodi:ry="23.817188"
     sodipodi:start="0"
     sodipodi:end="6.2781937"
     sodipodi:arc-type="slice"
	 onclick=""
     d="M 204.154,62.40799 A 24.065283,23.817188 0 0 1 180.11875,86.225159 24.065283,23.817188 0 0 1 156.02351,62.467432 24.065283,23.817188 0 0 1 179.99862,38.590968 24.065283,23.817188 0 0 1 204.1537,62.289104 l -24.06499,0.118886 z" />
  <path
     style="opacity:1;fill:#ffb955;fill-opacity:1;stroke:#ffb955;stroke-width:0.96;stroke-miterlimit:4;stroke-dasharray:none;stroke-opacity:1"
     id="dot_untenlinks"
     visibility="hidden"
     sodipodi:type="arc"
     sodipodi:cx="189.00418"
     sodipodi:cy="754.24512"
     sodipodi:rx="24.065283"
     sodipodi:ry="23.817188"
     sodipodi:start="0"
     sodipodi:end="6.2781937"
     sodipodi:arc-type="slice"	 
     d="m 213.06946,754.24512 a 24.065283,23.817188 0 0 1 -24.03525,23.81717 24.065283,23.817188 0 0 1 -24.09524,-23.75773 24.065283,23.817188 0 0 1 23.97512,-23.87646 24.065283,23.817188 0 0 1 24.15507,23.69813 l -24.06498,0.11889 z" />


   <text
      xml:space="preserve"
      style="font-style:normal;font-variant:normal;font-weight:normal;font-stretch:normal;font-size:40px;line-height:1.25;font-family:Bahnschrift;-inkscape-font-specification:Bahnschrift;fill:#e0e0e0;fill-opacity:1;stroke:none"
      x="28.178236"
      y="820.03937"
      id="text4414"><tspan
      sodipodi:role="line"
      id="tspan4412"
      x="18.07"
      y="870.56">Lennplatz</tspan></text>
      <text
      xml:space="preserve"
      style="font-style:normal;font-variant:normal;font-weight:normal;font-stretch:normal;font-size:40px;line-height:1.25;font-family:Bahnschrift;-inkscape-font-specification:Bahnschrift;fill:#e0e0e0;fill-opacity:1;stroke:none"
      x="1179.3333"
      y="804.54041"
      id="text8612"><tspan
      sodipodi:role="line"
      id="tspan8610"
      x="1179.3333"
      y="804.54041">Bad </tspan></text>
      <text
      xml:space="preserve"
      style="font-style:normal;font-variant:normal;font-weight:normal;font-stretch:normal;font-size:40px;line-height:1.25;font-family:Bahnschrift;-inkscape-font-specification:Bahnschrift;fill:#e0e0e0;fill-opacity:1;stroke:none"
      x="1176.5153"
      y="56.360107"
      id="text11376"><tspan
      sodipodi:role="line"
      id="tspan11374"
      x="1176.5153"
      y="56.360107">West</tspan></text>
      <text
      xml:space="preserve"
      style="font-style:normal;font-variant:normal;font-weight:normal;font-stretch:normal;font-size:40px;line-height:1.25;font-family:Bahnschrift;-inkscape-font-specification:Bahnschrift;fill:#e0e0e0;fill-opacity:1;stroke:none"
      x="45.086273"
      y="36.634071"
      id="text13360"><tspan
      sodipodi:role="line"
      id="tspan13358"
      x="45.086273"
      y="36.634071">Gast</tspan></text>

      <path
         style="fill:#E0E0E0;stroke-width:1.11453"
         d="m 399.55959,616.336 v -16.71798 h 26.1915 26.19149 v 16.71798 16.71797 h -26.19149 -26.1915 z"
         id="path1914"
         transform="translate(-0.00180408)">
         <animate
         attributeType="XML"
         attributeName="fill"
         values="#fcd300;#FDCB4C;#FAE7A4;#E0E0E0;#FAE7A4;#fcd300"
         dur="1.5s"
         repeatCount="indefinite"/>
      </path>

      <path
         sodipodi:type="star"
         style="fill:#ffa400;fill-opacity:1"
         id="path8035"
         inkscape:flatsided="false"
         sodipodi:sides="3"
         sodipodi:cx="57.415096"
         sodipodi:cy="651.01312"
         sodipodi:r1="54.793682"
         sodipodi:r2="27.396841"
         sodipodi:arg1="0.53172407"
         sodipodi:arg2="1.5789216"
         inkscape:rounded="0"
         inkscape:randomized="0"
         d="M 104.64365,678.79462 57.192492,678.40906 9.7413371,678.0235 33.800821,637.12237 l 24.059485,-40.90112 23.39167,41.28669 z"
         transform="matrix(0.65691434,0.75441982,-0.3157793,0.2749662,377.81751,506.1424)"
         inkscape:transform-center-x="8.7972415"
         inkscape:transform-center-y="7.3649417" >
         <animate
         attributeType="XML"
         attributeName="fill"
         values="#fcd300;#FDCB4C;#FAE7A4;#E0E0E0;#FAE7A4;#fcd300"
         dur="1.5s"
         repeatCount="indefinite"/></path>
         <path
         sodipodi:type="star"
         style="fill:#ffa400;fill-opacity:1"
         id="path8035-2"
         inkscape:flatsided="false"
         sodipodi:sides="3"
         sodipodi:cx="57.415096"
         sodipodi:cy="651.01312"
         sodipodi:r1="54.793682"
         sodipodi:r2="27.396841"
         sodipodi:arg1="0.53172407"
         sodipodi:arg2="1.5789216"
         inkscape:rounded="0"
         inkscape:randomized="0"
         transform="matrix(0.65691434,0.75441982,-0.3157793,0.2749662,343.14271,528.14189)"
         inkscape:transform-center-x="8.7972415"
         inkscape:transform-center-y="7.3649417"
         d="M 104.64365,678.79462 57.192492,678.40906 9.7413371,678.0235 33.800821,637.12237 l 24.059485,-40.90112 23.39167,41.28669 z">
         <animate
         attributeType="XML"
         attributeName="fill"
         values="#fcd300;#FDCB4C;#FAE7A4;#E0E0E0;#FAE7A4;#fcd300"
         dur="1.5s"
         repeatCount="indefinite"/>
         </path>
         <path
         sodipodi:type="star"
         style="fill:#ffa400;fill-opacity:1"
         id="path8035-2-9"
         inkscape:flatsided="false"
         sodipodi:sides="3"
         sodipodi:cx="57.415096"
         sodipodi:cy="651.01312"
         sodipodi:r1="54.793682"
         sodipodi:r2="27.396841"
         sodipodi:arg1="0.53172407"
         sodipodi:arg2="1.5789216"
         inkscape:rounded="0"
         inkscape:randomized="0"
         transform="matrix(0.65691434,0.75441982,-0.3157793,0.2749662,315.36119,555.92341)"
         inkscape:transform-center-x="8.7972415"
         inkscape:transform-center-y="7.3649417"
         d="M 104.64365,678.79462 57.192492,678.40906 9.7413371,678.0235 33.800821,637.12237 l 24.059485,-40.90112 23.39167,41.28669 z">
         <animate
         attributeType="XML"
         attributeName="fill"
         values="#fcd300;#FDCB4C;#FAE7A4;#E0E0E0;#FAE7A4;#fcd300"
         dur="1.5s"
         repeatCount="indefinite"/>
         </path>

</svg>
